<svg xmlns="http://www.w3.org/2000/svg" viewBox="0 0 128 128">
  <defs>
    <linearGradient id="onnxbg" x1="0%" y1="0%" x2="100%" y2="100%">
      <stop offset="0" stop-color="#1A3A5C"/>
      <stop offset="1" stop-color="#2B5B84"/>
    </linearGradient>
  </defs>
  <rect width="128" height="128" rx="16" fill="url(#onnxbg)"/>
  <!-- Neural network nodes -->
  <circle cx="24" cy="38" r="8" fill="#7BAFD4"/>
  <circle cx="24" cy="64" r="8" fill="#7BAFD4"/>
  <circle cx="24" cy="90" r="8" fill="#7BAFD4"/>
  <circle cx="64" cy="26" r="8" fill="#CFECF3"/>
  <circle cx="64" cy="64" r="10" fill="#CFECF3"/>
  <circle cx="64" cy="102" r="8" fill="#CFECF3"/>
  <circle cx="104" cy="38" r="8" fill="#7BAFD4"/>
  <circle cx="104" cy="90" r="8" fill="#7BAFD4"/>
  <!-- Edges -->
  <line x1="32" y1="38" x2="56" y2="30" stroke="#7BAFD4" stroke-width="2" opacity=".6"/>
  <line x1="32" y1="64" x2="54" y2="64" stroke="#7BAFD4" stroke-width="2" opacity=".6"/>
  <line x1="32" y1="90" x2="56" y2="98" stroke="#7BAFD4" stroke-width="2" opacity=".6"/>
  <line x1="32" y1="38" x2="54" y2="64" stroke="#7BAFD4" stroke-width="1.5" opacity=".4"/>
  <line x1="32" y1="90" x2="54" y2="64" stroke="#7BAFD4" stroke-width="1.5" opacity=".4"/>
  <line x1="74" y1="30" x2="96" y2="38" stroke="#7BAFD4" stroke-width="2" opacity=".6"/>
  <line x1="74" y1="64" x2="96" y2="38" stroke="#7BAFD4" stroke-width="1.5" opacity=".4"/>
  <line x1="74" y1="64" x2="96" y2="90" stroke="#7BAFD4" stroke-width="1.5" opacity=".4"/>
  <line x1="74" y1="98" x2="96" y2="90" stroke="#7BAFD4" stroke-width="2" opacity=".6"/>
</svg>
