<svg xmlns="http://www.w3.org/2000/svg" viewBox="0 0 128 128">
  <defs>
    <linearGradient id="pyB" x1="0%" y1="0%" x2="100%" y2="100%"><stop offset="0" stop-color="#5A9FD4"/><stop offset="1" stop-color="#306998"/></linearGradient>
    <linearGradient id="pyY" x1="0%" y1="0%" x2="100%" y2="100%"><stop offset="0" stop-color="#FFE873"/><stop offset="1" stop-color="#FFD43B"/></linearGradient>
  </defs>
  <path fill="url(#pyB)" d="M63.4 2c-4.2.02-8.25.38-11.88 1.01C40.99 4.87 39.07 8.76 39.07 15.94v9.48h24.88v3.16H39.07c-7.23 0-13.57 4.34-15.55 12.6-2.28 9.47-2.38 15.38 0 25.28C25.28 73.78 29.5 79 36.73 79h8.54V69c0-8.21 7.1-15.44 15.55-15.44h24.85c6.92 0 12.44-5.7 12.44-12.64V15.88c0-6.75-5.7-11.82-12.44-12.93C81.39 2.22 76.95 1.98 72.7 2H63.4zm-13.37 7.56c2.55 0 4.62 2.09 4.62 4.67a4.64 4.64 0 01-4.62 4.65 4.65 4.65 0 01-4.65-4.65c0-2.58 2.08-4.67 4.65-4.67z"/>
  <path fill="url(#pyY)" d="M91.7 28.38v9.23c0 8.58-7.27 15.8-15.55 15.8H51.28c-6.8 0-12.44 5.84-12.44 12.64v23.68c0 6.75 5.86 10.7 12.44 12.64 7.88 2.31 15.44 2.73 24.85 0C82.42 100.57 88.6 96.92 88.6 89.74v-9.47H63.72v-3.16H101c7.23 0 9.93-5.04 12.44-12.6 2.59-7.76 2.48-15.23 0-25.28-1.78-7.2-5.21-12.6-12.44-12.6H91.7zM78.5 82.64a4.65 4.65 0 110 9.3 4.65 4.65 0 010-9.3z"/>
</svg>
