<svg xmlns="http://www.w3.org/2000/svg" viewBox="0 0 128 128">
  <rect width="128" height="128" rx="16" fill="#2C3E50"/>
  <!-- 4x4 heatmap grid -->
  <rect x="14" y="14" width="24" height="24" rx="3" fill="#023858"/>
  <rect x="42" y="14" width="24" height="24" rx="3" fill="#045A8D"/>
  <rect x="70" y="14" width="24" height="24" rx="3" fill="#0570B0"/>
  <rect x="98" y="14" width="24" height="24" rx="3" fill="#3690C0"/>

  <rect x="14" y="42" width="24" height="24" rx="3" fill="#045A8D"/>
  <rect x="42" y="42" width="24" height="24" rx="3" fill="#0570B0"/>
  <rect x="70" y="42" width="24" height="24" rx="3" fill="#3690C0"/>
  <rect x="98" y="42" width="24" height="24" rx="3" fill="#74A9CF"/>

  <rect x="14" y="70" width="24" height="24" rx="3" fill="#0570B0"/>
  <rect x="42" y="70" width="24" height="24" rx="3" fill="#3690C0"/>
  <rect x="70" y="70" width="24" height="24" rx="3" fill="#74A9CF"/>
  <rect x="98" y="70" width="24" height="24" rx="3" fill="#A6BDDB"/>

  <rect x="14" y="98" width="24" height="24" rx="3" fill="#3690C0"/>
  <rect x="42" y="98" width="24" height="24" rx="3" fill="#74A9CF"/>
  <rect x="70" y="98" width="24" height="24" rx="3" fill="#A6BDDB"/>
  <rect x="98" y="98" width="24" height="24" rx="3" fill="#D0D1E6"/>
</svg>
